<?xml version="1.0" encoding="iso-8859-1"?>
<!-- Generator: Adobe Illustrator 19.0.0, SVG Export Plug-In . SVG Version: 6.00 Build 0)  -->
<svg version="1.1" id="Capa_1" xmlns="http://www.w3.org/2000/svg" xmlns:xlink="http://www.w3.org/1999/xlink" x="0px" y="0px"
	 viewBox="0 0 512 512" style="enable-background:new 0 0 512 512;" xml:space="preserve">
<rect x="380.082" y="375.922" style="fill:#333333;" width="119.986" height="85.196"/>
<rect x="12.358" y="375.922" style="fill:#4D4D4D;" width="119.986" height="85.196"/>
<polygon style="fill:#FBBF00;" points="312.129,50.883 199.871,50.883 171.93,105.728 340.07,105.728 "/>
<polygon style="fill:#FFA900;" points="312.129,50.883 256,50.883 256,105.728 340.07,105.728 "/>
<path style="fill:#4D4D4D;" d="M57.575,231.615H18.302L3.819,205.791c-5.188-9.247-5.085-20.232,0.275-29.382
	c5.359-9.15,14.89-14.613,25.493-14.613h42.762v28.723L57.575,231.615z"/>
<path style="fill:#333333;" d="M454.425,231.615h39.273l14.483-25.824c5.188-9.247,5.085-20.232-0.275-29.382
	c-5.359-9.15-14.89-14.613-25.493-14.613h-42.762v28.723L454.425,231.615z"/>
<path style="fill:#FFDB0C;" d="M459.37,217.888L416.692,99.177H95.308L52.63,217.887H11.28v184.956h489.441V217.888H459.37z"/>
<polygon style="fill:#FBBF00;" points="500.72,217.888 459.37,217.888 416.692,99.177 256,99.177 256,402.843 500.72,402.843 "/>
<polygon style="fill:#BEE8FF;" points="119.083,132.99 392.917,132.99 423.438,217.888 88.562,217.888 "/>
<polygon style="fill:#82D2FF;" points="392.917,132.99 256,132.99 256,217.888 423.438,217.888 "/>
<rect x="11.28" y="217.886" style="fill:#FBBF00;" width="489.441" height="184.958"/>
<rect x="255.998" y="217.886" style="fill:#FFA900;" width="244.721" height="184.958"/>
<rect x="81.857" y="294.005" style="fill:#FDE888;" width="73.649" height="30.382"/>
<rect x="356.499" y="294.005" style="fill:#FFDB0C;" width="73.649" height="30.382"/>
<g>
</g>
<g>
</g>
<g>
</g>
<g>
</g>
<g>
</g>
<g>
</g>
<g>
</g>
<g>
</g>
<g>
</g>
<g>
</g>
<g>
</g>
<g>
</g>
<g>
</g>
<g>
</g>
<g>
</g>
</svg>
