<?xml version="1.0" encoding="iso-8859-1"?>
<!-- Generator: Adobe Illustrator 19.0.0, SVG Export Plug-In . SVG Version: 6.00 Build 0)  -->
<svg version="1.1" id="Capa_1" xmlns="http://www.w3.org/2000/svg" xmlns:xlink="http://www.w3.org/1999/xlink" x="0px" y="0px"
	 viewBox="0 0 512.006 512.006" style="enable-background:new 0 0 512.006 512.006;" xml:space="preserve">
<rect x="0.004" y="416.143" style="fill:#82D2FF;" width="512" height="68.54"/>
<rect x="255.994" y="416.143" style="fill:#08B7FC;" width="256.01" height="68.54"/>
<rect x="176.534" y="3.397" style="fill:#808080;" width="158.95" height="155.95"/>
<rect x="256.004" y="3.397" style="fill:#666666;" width="79.47" height="155.95"/>
<rect x="113.354" y="104.103" style="fill:#E6E6E6;" width="285.3" height="139.83"/>
<rect x="256.004" y="104.103" style="fill:#CCCCCC;" width="142.65" height="139.83"/>
<polygon style="fill:#FF6536;" points="256.004,178.745 33.744,277.95 98.252,417.461 413.756,417.461 478.263,277.95 "/>
<polygon style="fill:#FF421D;" points="256.004,178.745 256.004,417.461 413.756,417.461 478.263,277.95 "/>
<path style="fill:#08B7FC;" d="M512.004,440.07c-17.517,0-27.151-6.721-34.186-11.629c-5.761-4.019-8.934-6.232-17.02-6.232
	s-11.26,2.214-17.021,6.232c-7.035,4.908-16.668,11.629-34.185,11.629c-17.515,0-27.148-6.722-34.182-11.629
	c-5.76-4.019-8.933-6.232-17.017-6.232c-8.084,0-11.257,2.214-17.017,6.232c-7.034,4.907-16.667,11.629-34.183,11.629
	c-17.515,0-27.148-6.722-34.182-11.629c-5.76-4.019-8.932-6.232-17.016-6.232c-8.083,0-11.255,2.214-17.015,6.232
	c-7.034,4.907-16.667,11.629-34.182,11.629c-17.516,0-27.149-6.722-34.183-11.629c-5.76-4.019-8.933-6.232-17.017-6.232
	s-11.256,2.214-17.016,6.232c-7.034,4.907-16.667,11.629-34.182,11.629c-17.516,0-27.148-6.722-34.183-11.629
	c-5.76-4.019-8.933-6.232-17.017-6.232s-11.256,2.214-17.016,6.232c-7.032,4.908-16.665,11.629-34.18,11.629v-30
	c8.084,0,11.256-2.214,17.016-6.232c7.034-4.907,16.667-11.629,34.182-11.629c17.516,0,27.149,6.722,34.183,11.629
	c5.76,4.019,8.933,6.232,17.017,6.232c8.083,0,11.256-2.214,17.015-6.232c7.034-4.907,16.667-11.629,34.183-11.629
	s27.149,6.722,34.183,11.629c5.76,4.019,8.933,6.232,17.017,6.232c8.083,0,11.256-2.214,17.015-6.232
	c7.034-4.907,16.667-11.629,34.182-11.629c17.516,0,27.148,6.722,34.183,11.629c5.759,4.019,8.932,6.232,17.015,6.232
	c8.084,0,11.257-2.214,17.017-6.232c7.034-4.907,16.667-11.629,34.183-11.629s27.149,6.722,34.183,11.629
	c5.76,4.019,8.932,6.232,17.016,6.232c8.086,0,11.259-2.214,17.02-6.232c7.035-4.908,16.669-11.629,34.186-11.629
	s27.15,6.721,34.185,11.629c5.761,4.019,8.934,6.232,17.021,6.232v30H512.004z"/>
<path style="fill:#006DFF;" d="M494.983,403.838c-7.035-4.908-16.668-11.629-34.185-11.629s-27.151,6.721-34.186,11.629
	c-5.761,4.019-8.934,6.232-17.02,6.232c-8.084,0-11.256-2.214-17.016-6.232c-7.034-4.907-16.667-11.629-34.183-11.629
	s-27.149,6.722-34.183,11.629c-5.76,4.019-8.933,6.232-17.017,6.232c-8.083,0-11.256-2.214-17.015-6.232
	c-7.034-4.907-16.667-11.629-34.183-11.629v30c8.084,0,11.256,2.214,17.016,6.232c7.034,4.907,16.667,11.629,34.182,11.629
	c17.516,0,27.149-6.722,34.183-11.629c5.76-4.019,8.933-6.232,17.017-6.232c8.084,0,11.257,2.214,17.017,6.232
	c7.034,4.907,16.667,11.629,34.182,11.629c17.517,0,27.15-6.721,34.185-11.629c5.761-4.019,8.934-6.232,17.021-6.232
	c8.086,0,11.259,2.214,17.02,6.232c7.035,4.908,16.669,11.629,34.186,11.629v-30C503.918,410.07,500.744,407.856,494.983,403.838z"
	/>
<path style="fill:#08B7FC;" d="M512.004,508.609c-17.517,0-27.151-6.722-34.186-11.629c-5.761-4.02-8.934-6.233-17.02-6.233
	s-11.26,2.214-17.021,6.233c-7.034,4.907-16.668,11.629-34.185,11.629c-17.516,0-27.148-6.722-34.183-11.63
	c-5.76-4.019-8.932-6.232-17.016-6.232s-11.257,2.214-17.017,6.232c-7.034,4.908-16.668,11.63-34.184,11.63
	c-17.515,0-27.148-6.722-34.182-11.63c-5.759-4.019-8.932-6.232-17.016-6.232c-8.083,0-11.255,2.214-17.014,6.232
	c-7.034,4.908-16.667,11.63-34.183,11.63s-27.149-6.722-34.184-11.63c-5.759-4.019-8.932-6.232-17.016-6.232
	c-8.083,0-11.256,2.214-17.016,6.232c-7.034,4.908-16.667,11.63-34.182,11.63c-17.516,0-27.149-6.722-34.183-11.63
	c-5.76-4.019-8.932-6.232-17.017-6.232c-8.083,0-11.256,2.214-17.016,6.232c-7.034,4.908-16.667,11.63-34.183,11.63v-30
	c8.083,0,11.256-2.214,17.016-6.232c7.034-4.908,16.667-11.63,34.183-11.63s27.149,6.722,34.184,11.63
	c5.76,4.019,8.932,6.232,17.016,6.232c8.083,0,11.256-2.214,17.015-6.232c7.034-4.908,16.667-11.63,34.183-11.63
	s27.149,6.722,34.183,11.63c5.76,4.019,8.933,6.232,17.017,6.232c8.083,0,11.256-2.214,17.015-6.232
	c7.034-4.908,16.667-11.63,34.182-11.63c17.516,0,27.149,6.722,34.183,11.63c5.759,4.019,8.932,6.232,17.015,6.232
	c8.084,0,11.257-2.214,17.017-6.232c7.034-4.908,16.668-11.63,34.184-11.63s27.149,6.722,34.183,11.63
	c5.759,4.019,8.932,6.232,17.016,6.232c8.086,0,11.259-2.214,17.02-6.233c7.034-4.907,16.668-11.629,34.186-11.629
	c17.517,0,27.151,6.722,34.185,11.629c5.761,4.02,8.935,6.233,17.021,6.233V508.609z"/>
<circle style="fill:#FFFFFF;" cx="190.044" cy="280.293" r="16.764"/>
<path style="fill:#006DFF;" d="M494.983,472.377c-7.035-4.908-16.668-11.629-34.185-11.629s-27.151,6.721-34.186,11.629
	c-5.761,4.019-8.934,6.232-17.02,6.232c-8.084,0-11.256-2.214-17.016-6.232c-7.034-4.907-16.667-11.629-34.183-11.629
	s-27.149,6.722-34.183,11.629c-5.76,4.019-8.933,6.232-17.017,6.232c-8.083,0-11.256-2.214-17.015-6.232
	c-7.034-4.907-16.667-11.629-34.183-11.629v30c8.084,0,11.256,2.214,17.016,6.232c7.034,4.907,16.667,11.629,34.182,11.629
	c17.516,0,27.149-6.722,34.183-11.629c5.76-4.019,8.933-6.232,17.017-6.232c8.084,0,11.257,2.214,17.017,6.232
	c7.034,4.907,16.667,11.629,34.182,11.629c17.517,0,27.15-6.721,34.185-11.629c5.761-4.019,8.934-6.232,17.021-6.232
	c8.086,0,11.259,2.214,17.02,6.232c7.035,4.908,16.669,11.629,34.186,11.629v-30C503.918,478.609,500.744,476.395,494.983,472.377z"
	/>
<g>
</g>
<g>
</g>
<g>
</g>
<g>
</g>
<g>
</g>
<g>
</g>
<g>
</g>
<g>
</g>
<g>
</g>
<g>
</g>
<g>
</g>
<g>
</g>
<g>
</g>
<g>
</g>
<g>
</g>
</svg>
