<?xml version="1.0" encoding="iso-8859-1"?>
<!-- Generator: Adobe Illustrator 19.0.0, SVG Export Plug-In . SVG Version: 6.00 Build 0)  -->
<svg version="1.1" id="Capa_1" xmlns="http://www.w3.org/2000/svg" xmlns:xlink="http://www.w3.org/1999/xlink" x="0px" y="0px"
	 viewBox="0 0 512 512" style="enable-background:new 0 0 512 512;" xml:space="preserve">
<polygon style="fill:#EB7330;" points="196,347 256,512 482,512 482,407 "/>
<polygon style="fill:#480306;" points="462,322 256,322 196,407 462,407 "/>
<rect x="50" y="322" style="fill:#8B2613;" width="206" height="85"/>
<rect x="30" y="407" style="fill:#F9963B;" width="226" height="105"/>
<polygon style="fill:#C7461F;" points="256,302 226,317 256,332 482,332 482,302 "/>
<rect x="30" y="302" style="fill:#EB7330;" width="226" height="30"/>
<rect x="452" y="156.85" style="fill:#C7461F;" width="30" height="250.15"/>
<g>
	<rect x="30" y="156.85" style="fill:#EB7330;" width="30" height="250.15"/>
	<rect x="241" y="302" style="fill:#EB7330;" width="30" height="105"/>
</g>
<g>
	<rect x="381.67" y="362" style="fill:#707741;" width="30" height="45"/>
	<rect x="311.33" y="362" style="fill:#707741;" width="30" height="45"/>
</g>
<g>
	<rect x="170.67" y="362" style="fill:#A59D4D;" width="30" height="45"/>
	<rect x="100.33" y="362" style="fill:#A59D4D;" width="30" height="45"/>
</g>
<path style="fill:#DFD17B;" d="M0,120v11c0,35.346,28.654,64,64,64s64-28.654,64-64v-11L64,90L0,120z"/>
<polygon style="fill:#FFF2A3;" points="128,0 0,0 0,120 128,120 188,61.898 "/>
<path style="fill:#A59D4D;" d="M128,120v11c0,35.346,28.654,64,64,64s64-28.654,64-64v-11l-64-30L128,120z"/>
<g>
	<polygon style="fill:#BFB053;" points="256,0 128,0 128,120 256,120 316,61.898 	"/>
	<path style="fill:#BFB053;" d="M256,120v11c0,35.346,28.654,64,64,64s64-28.654,64-64v-11l-64-30L256,120z"/>
</g>
<polygon style="fill:#FEDD90;" points="384,0 256,0 256,120 384,120 444,61.898 "/>
<path style="fill:#8A8A47;" d="M384,120v11c0,35.346,28.654,64,64,64s64-28.654,64-64v-11l-64-30L384,120z"/>
<rect x="384" style="fill:#A59D4D;" width="128" height="120"/>
<polygon style="fill:#C7461F;" points="512,422 256,422 226,407 256,392 512,392 "/>
<rect y="392" style="fill:#EB7330;" width="256" height="30"/>
<g>
</g>
<g>
</g>
<g>
</g>
<g>
</g>
<g>
</g>
<g>
</g>
<g>
</g>
<g>
</g>
<g>
</g>
<g>
</g>
<g>
</g>
<g>
</g>
<g>
</g>
<g>
</g>
<g>
</g>
</svg>
