<?xml version="1.0" encoding="iso-8859-1"?>
<!-- Generator: Adobe Illustrator 19.0.0, SVG Export Plug-In . SVG Version: 6.00 Build 0)  -->
<svg version="1.1" id="Capa_1" xmlns="http://www.w3.org/2000/svg" xmlns:xlink="http://www.w3.org/1999/xlink" x="0px" y="0px"
	 viewBox="0 0 512 512" style="enable-background:new 0 0 512 512;" xml:space="preserve">
<path style="fill:#FF4314;" d="M368.601,348.77c-0.33,0.71-8.31,17.61-26.05,34.19c-23.52,21.98-53.45,33.6-86.55,33.6
	s-63.03-11.62-86.55-33.6c-17.74-16.58-25.72-33.48-26.05-34.19l13.6-6.33l13.57-6.4c0.98,2.06,24.83,50.52,85.43,50.52
	c61.21,0,85.17-49.95,85.4-50.45L368.601,348.77z"/>
<path style="fill:#FF0002;" d="M368.601,348.77c-0.33,0.71-8.31,17.61-26.05,34.19c-23.52,21.98-53.45,33.6-86.55,33.6v-30
	c61.21,0,85.17-49.95,85.4-50.45L368.601,348.77z"/>
<rect x="167.82" y="15" style="fill:#CAE8F9;" width="176.36" height="206.99"/>
<rect x="256" y="15" style="fill:#A3D9F6;" width="88.18" height="206.99"/>
<polygon style="fill:#49BBEE;" points="344.181,165.56 344.181,221.99 167.821,221.99 167.821,165.59 222.251,123 256.001,149.99 
	269.511,160.79 305.741,135.34 "/>
<circle style="fill:#FFB74F;" cx="280.38" cy="69.08" r="15.12"/>
<path style="fill:#FF0002;" d="M511.999,385.229c-5.268,0.856-10.871,1.335-16.833,1.335c-60.597,0-84.447-48.462-85.432-50.525
	l-13.568,6.396l-13.599,6.33c0.331,0.711,8.314,17.613,26.052,34.193c23.522,21.985,53.449,33.606,86.547,33.606
	c5.712,0,11.327-0.355,16.833-1.04V385.229z"/>
<path style="fill:#FF4314;" d="M110.902,336.106c-0.235,0.504-24.194,50.459-85.401,50.459c-9.361,0-17.842-1.159-25.5-3.122v30.705
	c8.24,1.598,16.758,2.417,25.5,2.417c33.098,0,63.025-11.621,86.547-33.606c17.738-16.58,25.721-33.482,26.052-34.193
	L110.902,336.106z"/>
<path style="fill:#E0773B;" d="M152.821,0v236.99h206.36V0H152.821z M329.181,206.99h-146.36V30h146.36V206.99z"/>
<polygon style="fill:#009AE5;" points="344.181,165.56 344.181,221.99 256.001,221.99 256.001,149.99 269.511,160.79 
	305.741,135.34 "/>
<polygon style="fill:#B38A65;" points="359.181,0 359.181,236.99 256.001,236.99 256.001,206.99 329.181,206.99 329.181,30 
	256.001,30 256.001,0 "/>
<rect x="346.52" y="331.92" style="fill:#B15C49;" width="52.96" height="180.08"/>
<rect x="373" y="331.92" style="fill:#8E4231;" width="26.48" height="180.08"/>
<path style="fill:#F1966C;" d="M412.322,325.65c0,21.72-17.6,39.32-39.32,39.32c-21.71,0-39.32-17.6-39.32-39.32
	c0-21.71,17.61-39.32,39.32-39.32C394.722,286.33,412.322,303.94,412.322,325.65z"/>
<path style="fill:#EB854F;" d="M412.322,325.65c0,21.72-17.6,39.32-39.32,39.32v-78.64
	C394.722,286.33,412.322,303.94,412.322,325.65z"/>
<rect x="112.52" y="331.92" style="fill:#B15C49;" width="52.96" height="180.08"/>
<rect x="139" y="331.92" style="fill:#8E4231;" width="26.48" height="180.08"/>
<path style="fill:#F1966C;" d="M178.32,325.65c0,21.72-17.6,39.32-39.32,39.32c-21.71,0-39.32-17.6-39.32-39.32
	c0-21.71,17.61-39.32,39.32-39.32C160.72,286.33,178.32,303.94,178.32,325.65z"/>
<path style="fill:#EB854F;" d="M178.32,325.65c0,21.72-17.6,39.32-39.32,39.32v-78.64C160.72,286.33,178.32,303.94,178.32,325.65z"
	/>
<g>
</g>
<g>
</g>
<g>
</g>
<g>
</g>
<g>
</g>
<g>
</g>
<g>
</g>
<g>
</g>
<g>
</g>
<g>
</g>
<g>
</g>
<g>
</g>
<g>
</g>
<g>
</g>
<g>
</g>
</svg>
