<?xml version="1.0" encoding="iso-8859-1"?>
<!-- Generator: Adobe Illustrator 19.0.0, SVG Export Plug-In . SVG Version: 6.00 Build 0)  -->
<svg version="1.1" id="Capa_1" xmlns="http://www.w3.org/2000/svg" xmlns:xlink="http://www.w3.org/1999/xlink" x="0px" y="0px"
	 viewBox="0 0 512 512" style="enable-background:new 0 0 512 512;" xml:space="preserve">
<path style="fill:#F5601E;" d="M50.04,306.01v148h452v-148H50.04z"/>
<path style="fill:#EE4554;" d="M50.04,176.01v130h452v-130L50.04,176.01L50.04,176.01z"/>
<g>
	<rect x="144.04" y="216.01" style="fill:#63C3E6;" width="80" height="50"/>
	<rect x="264.04" y="216.01" style="fill:#63C3E6;" width="80" height="50"/>
	<rect x="382.04" y="216.01" style="fill:#63C3E6;" width="80" height="50"/>
</g>
<path style="fill:#E6FFFF;" d="M156.594,46.01c8.521,9.505,15.011,21.086,18.542,34.259c10.298,38.422-7.805,77.744-41.426,95.741
	h368.33v-130C502.04,46.01,156.594,46.01,156.594,46.01z"/>
<g>
	<rect x="264.04" y="346.01" style="fill:#63C3E6;" width="80" height="68"/>
	<rect x="382.04" y="346.01" style="fill:#63C3E6;" width="80" height="68"/>
</g>
<g>
	<rect x="224.04" y="454.01" style="fill:#81B3E6;" width="278" height="40"/>
	<rect x="50.04" y="454.01" style="fill:#81B3E6;" width="54" height="40"/>
</g>
<g>
	<rect x="104.04" y="346.01" style="fill:#B53C1D;" width="60" height="148"/>
	<rect x="164.04" y="346.01" style="fill:#B53C1D;" width="60" height="148"/>
</g>
<path style="fill:#F5601E;" d="M94.02,102.01l81.116-21.741c-6.004-22.4-20.518-40.245-39.131-50.99L94.02,102.01z"/>
<path style="fill:#FABA4B;" d="M136.004,29.279C117.39,18.534,94.678,14.89,72.278,20.894C27.48,32.901,0.896,78.952,12.903,123.751
	s58.058,71.382,102.857,59.375s71.383-58.058,59.375-102.857L94.02,102.01L136.004,29.279z"/>
<path d="M502.001,36.019H160.929c-5.858-5.922-12.528-11.114-19.937-15.391c-0.005-0.003-0.01-0.004-0.014-0.007
	C119.242,8.077,93.924,4.747,69.685,11.245c-24.245,6.499-44.508,22.05-57.058,43.789C0.078,76.773-3.254,102.1,3.244,126.346
	c5.934,22.139,19.349,40.312,36.793,52.54V494c0,5.522,4.477,10,9.999,10h451.965c5.523,0,9.999-4.477,9.999-10V46.019
	C512,40.497,507.523,36.019,502.001,36.019z M162.232,73.379l-47.491,12.729l24.581-42.583
	C149.453,51.339,157.304,61.57,162.232,73.379z M22.561,121.168c-5.115-19.086-2.492-39.022,7.386-56.135
	c13.1-22.694,37.986-37.024,64.185-37.024c9.53,0,18.971,1.859,27.87,5.517c0,0-36.551,63.32-36.65,63.491
	c-4.321,7.485,2.925,16.878,11.248,14.658l70.801-18.977c4.61,36.117-18.116,71.09-54.239,80.773
	C73.764,184.033,33.12,160.567,22.561,121.168z M94.033,484.001H60.035v-19.999h33.997L94.033,484.001L94.033,484.001z
	 M154.028,484.001h-39.997V356.006h39.997V484.001z M214.023,484.001h-39.997V356.006h39.997L214.023,484.001L214.023,484.001z
	 M492.002,484.001h-257.98v-19.999h257.98V484.001z M492.002,444.002h-257.98v-97.996c0-5.522-4.477-10-9.999-10H104.032
	c-5.523,0-9.999,4.477-9.999,10v97.996H60.035V316.008h431.966v127.994H492.002z M492.002,296.009H60.035V189.591
	c10.699,4.167,22.209,6.412,33.998,6.412c14.477,0,29.21-3.503,42.141-9.99h355.827v109.996H492.002z M492.002,166.014H162.784
	c21.265-22.927,30.672-55.955,21.996-88.326c-2.053-7.661-5.015-14.921-8.786-21.669h316.007v109.995H492.002z"/>
<path d="M264.019,424.003h79.994c5.523,0,9.999-4.477,9.999-10v-67.997c0-5.522-4.477-10-9.999-10h-79.994
	c-5.522,0-9.999,4.477-9.999,10v67.997C254.02,419.526,258.497,424.003,264.019,424.003z M274.019,356.006h59.995v47.998h-59.995
	V356.006z"/>
<path d="M382.01,424.003h79.994c5.522,0,9.999-4.477,9.999-10v-67.997c0-5.522-4.477-10-9.999-10H382.01
	c-5.523,0-9.999,4.477-9.999,10v67.997C372.011,419.526,376.488,424.003,382.01,424.003z M392.009,356.006h59.995v47.998h-59.995
	V356.006z"/>
<path d="M134.03,266.01c0,5.522,4.477,10,9.999,10h79.994c5.523,0,9.999-4.477,9.999-10v-49.998c0-5.522-4.477-10-9.999-10h-79.994
	c-5.523,0-9.999,4.477-9.999,10V266.01z M154.028,226.011h59.995v29.999h-59.995V226.011z"/>
<path d="M264.019,276.009h79.994c5.523,0,9.999-4.477,9.999-10v-49.998c0-5.522-4.477-10-9.999-10h-79.994
	c-5.522,0-9.999,4.477-9.999,10v49.998C254.02,271.532,258.497,276.009,264.019,276.009z M274.019,226.011h59.995v29.999h-59.995
	V226.011z"/>
<path d="M382.01,276.009h79.994c5.522,0,9.999-4.477,9.999-10v-49.998c0-5.522-4.477-10-9.999-10H382.01
	c-5.523,0-9.999,4.477-9.999,10v49.998C372.011,271.532,376.488,276.009,382.01,276.009z M392.009,226.011h59.995v29.999h-59.995
	V226.011z"/>
<path d="M222.799,143.806c2.619,0,7.02-0.969,7.02-4.32c0-0.021,0-19.439,0-19.439h8.909c6.66,0,12.014-1.695,16.063-5.086
	c8.318-6.964,8.523-24.847,0.27-31.948c-3.87-3.329-9.015-4.994-15.434-4.994h-18.628c-2.401,0-5.219,1.498-5.219,4.231
	c0,0.383,0,57.236,0,57.236C215.78,142.853,220.159,143.806,222.799,143.806z M229.819,90.258h8.909
	c11.132,0,10.751,18.988,0,18.988c-0.014,0-8.909,0-8.909,0V90.258z"/>
<path d="M280.753,143.806c2.648,0,7.019-0.911,7.019-4.322c0-0.402,0-57.236,0-57.236c0-3.41-4.392-4.229-7.018-4.229
	c-2.617,0-7.021,0.81-7.021,4.23c0,0.308,0,57.237,0,57.237C273.734,142.833,278.118,143.806,280.753,143.806z"/>
<path d="M304.242,143.806c0.237,0,38.336,0,38.336,0c2.929,0,4.23-3.683,4.23-6.12c0-2.457-1.249-6.12-4.23-6.12
	c-0.094,0-24.478,0-24.478,0l25.378-44.908c1.718-3.133,2.577-8.639-2.521-8.639c-0.19,0-34.737,0-34.737,0
	c-3.194,0-4.229,3.556-4.229,6.12c0,2.547,1.124,6.12,4.229,6.12c0.08,0,20.879,0,20.879,0l-25.379,44.907
	c-0.798,1.362-1.361,3.268-1.28,4.943C300.538,142.124,301.567,143.806,304.242,143.806z"/>
<path d="M359.228,143.806c0.343,0,38.335,0,38.335,0c2.897,0,4.229-3.704,4.229-6.12c0-2.412-1.286-6.119-4.23-6.119
	c-0.126,0-24.478,0-24.478,0l25.378-44.908c1.719-3.136,2.599-8.639-2.52-8.639c-0.184,0-34.737,0-34.737,0
	c-3.169,0-4.23,3.493-4.23,6.12c0,2.485,1.219,6.12,4.23,6.12c0.051,0,20.878,0,20.878,0l-25.378,44.907
	c-0.755,1.288-1.252,3.22-1.121,4.931C355.738,142.103,356.754,143.806,359.228,143.806z"/>
<path d="M412.637,142.096c2.548,1.491,9.491,3.413,10.664-0.899c0.015-0.056,3.059-11.25,3.059-11.25h18.989l3.06,11.25
	c1.176,4.269,8.046,2.431,10.664,0.899c1.797-1.051,3.415-2.852,2.745-5.04c-0.039-0.128-16.829-54.898-16.829-54.898
	c-1.162-3.616-5.84-4.679-9.18-4.679c-3.294,0-8.067,1.033-9.179,4.679c-0.044,0.144-16.739,54.898-16.739,54.898
	c-0.086,0.34-0.121,0.67-0.114,0.99C409.82,139.802,411.161,141.232,412.637,142.096z M435.81,95.029l6.57,24.118h-13.139
	L435.81,95.029z"/>
<circle cx="117.03" cy="138.01" r="10"/>
<circle cx="79.03" cy="142.01" r="10"/>
<circle cx="53.04" cy="114.02" r="10"/>
<circle cx="60.03" cy="76.02" r="10"/>
<g>
</g>
<g>
</g>
<g>
</g>
<g>
</g>
<g>
</g>
<g>
</g>
<g>
</g>
<g>
</g>
<g>
</g>
<g>
</g>
<g>
</g>
<g>
</g>
<g>
</g>
<g>
</g>
<g>
</g>
</svg>
