<?xml version="1.0" encoding="iso-8859-1"?>
<!-- Generator: Adobe Illustrator 19.0.0, SVG Export Plug-In . SVG Version: 6.00 Build 0)  -->
<svg version="1.1" id="Capa_1" xmlns="http://www.w3.org/2000/svg" xmlns:xlink="http://www.w3.org/1999/xlink" x="0px" y="0px"
	 viewBox="0 0 512.025 512.025" style="enable-background:new 0 0 512.025 512.025;" xml:space="preserve">
<rect x="150.422" y="440.82" style="fill:#333333;" width="209.58" height="30"/>
<rect x="256.012" y="440.82" style="fill:#1A1A1A;" width="103.98" height="30"/>
<rect x="137.035" y="393.719" transform="matrix(-0.8789 -0.4771 0.4771 -0.8789 69.5959 923.4258)" style="fill:#4D4D4D;" width="30.001" height="118.315"/>
<rect x="300.819" y="437.866" transform="matrix(-0.4771 -0.8789 0.8789 -0.4771 133.707 985.2891)" style="fill:#333333;" width="118.315" height="30.001"/>
<polygon style="fill:#666666;" points="319.047,76.795 291.017,66.1 304.792,30 207.232,30 221.007,66.1 192.977,76.795 163.675,0 
	348.349,0 "/>
<g>
	<polygon style="fill:#4D4D4D;" points="319.047,76.795 291.017,66.1 304.792,30 256.012,30 256.012,0 348.349,0 	"/>
	<polygon style="fill:#4D4D4D;" points="462.635,197.71 432.635,197.71 432.635,145.865 79.389,145.865 79.389,197.71 
		49.389,197.71 49.389,115.865 462.635,115.865 	"/>
</g>
<polygon style="fill:#333333;" points="462.635,197.71 432.635,197.71 432.635,145.865 256.012,145.865 256.012,115.865 
	462.635,115.865 "/>
<rect x="104.372" y="59.2" style="fill:#FF6536;" width="303.29" height="352.77"/>
<g>
	<rect x="256.012" y="59.2" style="fill:#FF421D;" width="151.64" height="352.77"/>
	<rect x="104.372" y="277.92" style="fill:#FF421D;" width="303.29" height="134.05"/>
</g>
<rect x="256.012" y="277.92" style="fill:#DE0418;" width="151.64" height="134.05"/>
<rect x="134.372" y="89.2" style="fill:#BEE8FF;" width="243.29" height="188.72"/>
<rect x="256.012" y="89.2" style="fill:#82D2FF;" width="121.64" height="188.72"/>
<rect x="156.022" y="313.43" style="fill:#FFDB0C;" width="58.861" height="30"/>
<rect x="297.142" y="313.43" style="fill:#FBBF00;" width="58.861" height="30"/>
<g>
</g>
<g>
</g>
<g>
</g>
<g>
</g>
<g>
</g>
<g>
</g>
<g>
</g>
<g>
</g>
<g>
</g>
<g>
</g>
<g>
</g>
<g>
</g>
<g>
</g>
<g>
</g>
<g>
</g>
</svg>
