<?xml version="1.0" encoding="iso-8859-1"?>
<!-- Generator: Adobe Illustrator 19.0.0, SVG Export Plug-In . SVG Version: 6.00 Build 0)  -->
<svg version="1.1" id="Capa_1" xmlns="http://www.w3.org/2000/svg" xmlns:xlink="http://www.w3.org/1999/xlink" x="0px" y="0px"
	 viewBox="0 0 512 512" style="enable-background:new 0 0 512 512;" xml:space="preserve">
<rect x="10" y="458" style="fill:#B53C1D;" width="492" height="42"/>
<rect x="10" y="188" style="fill:#4AC2B1;" width="492" height="270"/>
<g>
	<path style="fill:#F5601E;" d="M420,268c-45.287,0-82,32.958-82,73.613V458h164V341.613C502,300.958,465.287,268,420,268z"/>
	<path style="fill:#F5601E;" d="M256,268c-45.287,0-82,32.958-82,73.613V458h164V341.613C338,300.958,301.287,268,256,268z"/>
	<path style="fill:#F5601E;" d="M92,268c-45.287,0-82,32.958-82,73.613V458h164V341.613C174,300.958,137.287,268,92,268z"/>
</g>
<g>
	<path style="fill:#E6E6E6;" d="M256,308c-23.196,0-42,16.019-42,48.115V458h84V356.115C298,324.019,279.196,308,256,308z"/>
	<path style="fill:#E6E6E6;" d="M420,308c-23.196,0-42,16.019-42,48.115V458h84V356.115C462,324.019,443.196,308,420,308z"/>
	<path style="fill:#E6E6E6;" d="M92,308c-23.196,0-42,16.019-42,48.115V458h84V356.115C134,324.019,115.196,308,92,308z"/>
</g>
<rect x="56" y="8" style="fill:#4AC2B1;" width="400" height="180"/>
<rect x="96" y="48" style="fill:#E6FFFF;" width="320" height="140"/>
<path d="M502,180h-36V10c0-5.522-4.478-10-10-10H56c-5.523,0-10,4.478-10,10v170H10c-5.523,0-10,4.478-10,10v270v42
	c0,5.522,4.477,10,10,10h492c5.522,0,10-4.478,10-10v-42V190C512,184.478,507.522,180,502,180z M66,20h380v160h-20V50
	c0-5.522-4.478-10-10-10H96c-5.523,0-10,4.478-10,10v130H66V20z M406,180H106V60h300V180z M184,343.613
	C184,308.537,216.299,280,256,280s72,28.537,72,63.613V450h-20v-91.885c0-17.732-5.202-32.592-15.044-42.974
	C283.698,305.377,270.574,300,256,300s-27.698,5.377-36.956,15.142C209.202,325.523,204,340.383,204,358.115V450h-20V343.613z
	 M348,343.613C348,308.537,380.299,280,420,280s72,28.537,72,63.613V450h-20v-91.885c0-17.732-5.202-32.592-15.044-42.974
	C447.698,305.377,434.574,300,420,300s-27.698,5.377-36.956,15.142C373.202,325.523,368,340.383,368,358.115V450h-20V343.613z
	 M388,450v-30h22v30H388z M451.491,350H430v-28.637C441.92,324.85,449.53,334.926,451.491,350z M388,370h22v30h-22V370z M430,370h22
	v30h-22V370z M410,350h-21.491c1.961-15.074,9.571-25.15,21.491-28.637V350z M430,420h22v30h-22V420z M224,450v-30h22v30H224z
	 M287.491,350H266v-28.637C277.92,324.85,285.53,334.926,287.491,350z M224,370h22v30h-22V370z M266,370h22v30h-22V370z M246,350
	h-21.491c1.961-15.074,9.571-25.15,21.491-28.637V350z M266,420h22v30h-22V420z M164,450h-20v-91.885
	c0-17.732-5.202-32.592-15.044-42.974C119.698,305.377,106.574,300,92,300s-27.698,5.377-36.956,15.142
	C45.202,325.523,40,340.383,40,358.115V450H20V343.613C20,308.537,52.299,280,92,280s72,28.537,72,63.613V450z M60,450v-30h22v30H60
	z M123.491,350H102v-28.637C113.921,324.85,121.53,334.926,123.491,350z M60,370h22v30H60V370z M102,370h22v30h-22V370z M82,350
	H60.509C62.47,334.926,70.08,324.85,82,321.363V350z M102,420h22v30h-22V420z M492,492H20v-22h472V492z M420,260
	c-35.732,0-66.771,18.611-82,45.727C322.771,278.611,291.732,260,256,260s-66.771,18.611-82,45.727
	C158.771,278.611,127.732,260,92,260c-29.126,0-55.131,12.368-72,31.625V240h196c5.51,0,10-4.49,10-10s-4.49-10-10-10H20v-20h472v20
	H296c-5.521,0-10,4.49-10,10s4.479,10,10,10h196v51.625C475.131,272.368,449.126,260,420,260z"/>
<path d="M161.934,160.791c0.374,0,46.857,0,46.857,0c3.662,0,5.171-4.456,5.171-7.481c0-2.944-1.586-7.479-5.172-7.479
	c-0.168,0-29.919,0-29.919,0l31.021-54.89c2.1-3.831,3.172-10.561-3.081-10.561c-0.255,0-42.459,0-42.459,0
	c-3.799,0-5.17,4.405-5.17,7.481c0,3.126,1.367,7.479,5.17,7.479c0.068,0,25.519,0,25.519,0l-31.02,54.89
	c-0.951,1.622-1.61,3.967-1.488,6.036C157.509,158.724,158.759,160.791,161.934,160.791z"/>
<path d="M235.631,155.182c4.912,4.18,11.44,6.27,19.58,6.27c8.212,0,14.776-2.09,19.69-6.27c4.912-4.181,7.369-10.742,7.369-19.69
	v-29.15c0-8.946-2.457-15.51-7.369-19.69c-4.914-4.18-11.479-6.27-19.69-6.27c-8.14,0-14.668,2.09-19.58,6.27
	c-4.914,4.181-7.37,10.744-7.37,19.69v29.15C228.261,144.439,230.717,151.001,235.631,155.182z M245.421,106.341
	c0-7.332,3.263-11,9.79-11c6.6,0,9.9,3.668,9.9,11v29.15c0,7.333-3.301,11-9.9,11c-6.527,0-9.79-3.667-9.79-11V106.341z"/>
<path d="M308.011,155.182c4.912,4.18,11.439,6.27,19.579,6.27c8.213,0,14.776-2.09,19.69-6.27c4.912-4.181,7.37-10.742,7.37-19.69
	v-29.15c0-8.946-2.458-15.51-7.37-19.69c-4.914-4.18-11.478-6.27-19.69-6.27c-8.14,0-14.667,2.09-19.579,6.27
	c-4.914,4.181-7.37,10.744-7.37,19.69v29.15C300.641,144.439,303.097,151.001,308.011,155.182z M317.801,106.341
	c0-7.332,3.262-11,9.789-11c6.601,0,9.9,3.668,9.9,11v29.15c0,7.333-3.3,11-9.9,11c-6.527,0-9.789-3.667-9.789-11V106.341z"/>
<path d="M256,220c-5.51,0-10,4.49-10,10s4.49,10,10,10c5.51,0,10-4.49,10-10S261.51,220,256,220z"/>
<g>
</g>
<g>
</g>
<g>
</g>
<g>
</g>
<g>
</g>
<g>
</g>
<g>
</g>
<g>
</g>
<g>
</g>
<g>
</g>
<g>
</g>
<g>
</g>
<g>
</g>
<g>
</g>
<g>
</g>
</svg>
